<?xml version="1.0" encoding="UTF-8" standalone="no"?>
<svg
   xmlns:dc="http://purl.org/dc/elements/1.1/"
   xmlns:cc="http://creativecommons.org/ns#"
   xmlns:rdf="http://www.w3.org/1999/02/22-rdf-syntax-ns#"
   xmlns:svg="http://www.w3.org/2000/svg"
   xmlns="http://www.w3.org/2000/svg"
   xmlns:sodipodi="http://sodipodi.sourceforge.net/DTD/sodipodi-0.dtd"
   xmlns:inkscape="http://www.inkscape.org/namespaces/inkscape"
   version="1.1"
   id="svg2"
   xml:space="preserve"
   width="181.99867"
   height="166.26801"
   viewBox="0 0 181.99867 166.26801"
   sodipodi:docname="Vector Smart Object2.ai"><metadata
     id="metadata8"><rdf:RDF><cc:Work
         rdf:about=""><dc:format>image/svg+xml</dc:format><dc:type
           rdf:resource="http://purl.org/dc/dcmitype/StillImage" /></cc:Work></rdf:RDF></metadata><defs
     id="defs6"><clipPath
       clipPathUnits="userSpaceOnUse"
       id="clipPath18"><path
         d="M 0,124.701 H 136.499 V 0 H 0 Z"
         id="path16" /></clipPath></defs><sodipodi:namedview
     pagecolor="#ffffff"
     bordercolor="#666666"
     borderopacity="1"
     objecttolerance="10"
     gridtolerance="10"
     guidetolerance="10"
     inkscape:pageopacity="0"
     inkscape:pageshadow="2"
     inkscape:window-width="640"
     inkscape:window-height="480"
     id="namedview4" /><g
     id="g10"
     inkscape:groupmode="layer"
     inkscape:label="Vector Smart Object2"
     transform="matrix(1.3333333,0,0,-1.3333333,0,166.268)"><g
       id="g12"><g
         id="g14"
         clip-path="url(#clipPath18)"><g
           id="g20"
           transform="translate(27.5933,61.9684)"><path
             d="M 0,0 C 0,-20.778 16.844,-37.622 37.622,-37.622 H 69.026 L 87.565,6.799 H 87.51 l 0.278,0.517 H 41.79 L 34.097,-6.402 67.053,-6.508 59.19,-25.348 H 38.031 C 24.032,-25.348 12.683,-14 12.683,0 c 0,14 11.349,25.348 25.348,25.348 H 80.349 L 78.412,20.706 93.3,20.539 100.429,37.622 H 37.622 C 16.844,37.622 0,20.778 0,0"
             style="fill:#fff;fill-opacity:1;fill-rule:nonzero;stroke:none"
             id="path22" /></g><g
           id="g24"
           transform="translate(62.3511,124.7013)"><path
             d="m 0,0 c -34.38,0 -62.351,-27.97 -62.351,-62.351 0,-34.38 27.971,-62.35 62.351,-62.35 h 23.397 l 5.291,13 H 0 c -27.212,0 -49.351,22.138 -49.351,49.35 C -49.351,-35.139 -27.212,-13 0,-13 h 68.857 l 5.291,13 z"
             style="fill:#fff;fill-opacity:1;fill-rule:nonzero;stroke:none"
             id="path26" /></g></g></g></g></svg>
