<?xml version="1.0" encoding="UTF-8" standalone="no"?>
<svg
   xmlns:dc="http://purl.org/dc/elements/1.1/"
   xmlns:cc="http://creativecommons.org/ns#"
   xmlns:rdf="http://www.w3.org/1999/02/22-rdf-syntax-ns#"
   xmlns:svg="http://www.w3.org/2000/svg"
   xmlns="http://www.w3.org/2000/svg"
   xmlns:sodipodi="http://sodipodi.sourceforge.net/DTD/sodipodi-0.dtd"
   xmlns:inkscape="http://www.inkscape.org/namespaces/inkscape"
   version="1.1"
   id="svg2"
   xml:space="preserve"
   width="100.89067"
   height="72.066933"
   viewBox="0 0 100.89067 72.066933"
   sodipodi:docname="Vector Smart Object.ai"><metadata
     id="metadata8"><rdf:RDF><cc:Work
         rdf:about=""><dc:format>image/svg+xml</dc:format><dc:type
           rdf:resource="http://purl.org/dc/dcmitype/StillImage" /></cc:Work></rdf:RDF></metadata><defs
     id="defs6"><clipPath
       clipPathUnits="userSpaceOnUse"
       id="clipPath18"><path
         d="M 0,54.05 H 75.668 V 0 H 0 Z"
         id="path16" /></clipPath></defs><sodipodi:namedview
     pagecolor="#ffffff"
     bordercolor="#666666"
     borderopacity="1"
     objecttolerance="10"
     gridtolerance="10"
     guidetolerance="10"
     inkscape:pageopacity="0"
     inkscape:pageshadow="2"
     inkscape:window-width="640"
     inkscape:window-height="480"
     id="namedview4" /><g
     id="g10"
     inkscape:groupmode="layer"
     inkscape:label="Vector Smart Object"
     transform="matrix(1.3333333,0,0,-1.3333333,0,72.066933)"><g
       id="g12"><g
         id="g14"
         clip-path="url(#clipPath18)"><g
           id="g20"
           transform="translate(75.668,47.0511)"><path
             d="M 0,0 C 0,3.115 -2.848,5.564 -6.082,4.886 -7.973,4.49 -9.498,2.958 -9.89,1.066 c -0.528,-2.552 0.892,-4.847 3.042,-5.704 l -10.894,-13.194 c -1.262,-1.529 -3.594,-1.562 -4.899,-0.071 L -35.72,-2.964 c -0.102,0.116 -0.218,0.21 -0.333,0.305 2.18,0.835 3.634,3.135 3.111,5.706 -0.386,1.899 -1.912,3.44 -3.809,3.838 -3.235,0.68 -6.084,-1.77 -6.084,-4.885 0,-2.134 1.343,-3.942 3.224,-4.66 -0.116,-0.096 -0.232,-0.191 -0.334,-0.308 l -12.958,-14.869 c -1.3,-1.491 -3.625,-1.467 -4.892,0.051 l -10.99,13.159 c 2.07,0.844 3.451,3.028 3.046,5.479 -0.328,1.982 -1.883,3.623 -3.849,4.034 -3.233,0.676 -6.08,-1.773 -6.08,-4.887 0,-2.134 1.344,-3.943 3.226,-4.661 0.491,-2.387 6.504,-26.107 7.654,-30.641 0.113,-0.444 0.51,-0.747 0.967,-0.747 h 51.972 c 0.458,0 0.856,0.304 0.968,0.748 0.947,3.762 5.235,20.82 7.627,30.63 C -1.358,-3.96 0,-2.145 0,0"
             style="fill:#FFF;fill-opacity:1;fill-rule:nonzero;stroke:none"
             id="path22" /></g><g
           id="g24"
           transform="translate(63.833,3e-4)"><path
             d="m 0,0 h -52 c -1.657,0 -3,1.343 -3,3 0,1.656 1.343,3 3,3 H 0 C 1.657,6 3,4.656 3,3 3,1.343 1.657,0 0,0"
             style="fill:#FFF;fill-opacity:1;fill-rule:nonzero;stroke:none"
             id="path26" /></g></g></g></g></svg>
